<!DOCTYPE svg PUBLIC "-//W3C//DTD SVG 1.1//EN" "http://www.w3.org/Graphics/SVG/1.1/DTD/svg11.dtd">
<!--Scalable Vector Graphic-->
<svg version="1.1" 
     xmlns="http://www.w3.org/2000/svg"
     xmlns:xlink="http://www.w3.org/1999/xlink"
     xmlns:ev="http://www.w3.org/2001/xml-events"     
     baseProfile="full" class="me404" viewbox="0 0 1000 480">
	 <style type="text/css">   
	 <![CDATA[   
	 	.st0 {
		  fill-rule: evenodd;
		  clip-rule: evenodd;
		  fill: #E8EBED;
		}
		.st1 {
		  fill: #FFFFFF;
		  stroke: #89949B;
		  stroke-width: 3;
		  stroke-linecap: round;
		  stroke-linejoin: round;
		  stroke-miterlimit: 10;
		}
		.st2 {
		  fill-rule: evenodd;
		  clip-rule: evenodd;
		  fill: #DBDFE1;
		}
		.st3 {
		  fill: #FFFFFF;
		}
		.st4 {
		  fill-rule: evenodd;
		  clip-rule: evenodd;
		  fill: #E8EBED;
		  stroke: #89949B;
		  stroke-width: 3;
		  stroke-linecap: round;
		  stroke-linejoin: round;
		  stroke-miterlimit: 10;
		}
		.st5 {
		  fill-rule: evenodd;
		  clip-rule: evenodd;
		  fill: #FFFFFF;
		  stroke: #89949B;
		  stroke-width: 3;
		  stroke-linecap: round;
		  stroke-linejoin: round;
		  stroke-miterlimit: 10;
		}
		.st6 {
		  fill-rule: evenodd;
		  clip-rule: evenodd;
		  fill: none;
		  stroke: #89949B;
		  stroke-width: 3;
		  stroke-linecap: round;
		  stroke-linejoin: round;
		  stroke-miterlimit: 10;
		}
		.st7 {
		  fill-rule: evenodd;
		  clip-rule: evenodd;
		  fill: none;
		  stroke: #89949B;
		  stroke-width: 4;
		  stroke-linecap: round;
		  stroke-linejoin: round;
		  stroke-miterlimit: 10;
		}
		.st8 {
		  fill-rule: evenodd;
		  clip-rule: evenodd;
		  fill: #FFFFFF;
		  stroke: #89949B;
		  stroke-width: 2;
		  stroke-linecap: round;
		  stroke-linejoin: round;
		  stroke-miterlimit: 10;
		}
		.st9 {
		  fill: #89949B;
		}
		.st10 {
		  fill-rule: evenodd;
		  clip-rule: evenodd;
		  fill: #89949B;
		}
		.st11 {
		  fill-rule: evenodd;
		  clip-rule: evenodd;
		  fill: none;
		  stroke: #89949B;
		  stroke-width: 2;
		  stroke-linecap: round;
		  stroke-linejoin: round;
		  stroke-miterlimit: 10;
		}
		.st12 {
		  fill-rule: evenodd;
		  clip-rule: evenodd;
		  fill: #FFFFFF;
		}
		.st13 {
		  fill-rule: evenodd;
		  clip-rule: evenodd;
		  fill: #8894A0;
		  stroke: #8894A0;
		  stroke-width: 3;
		  stroke-linecap: round;
		  stroke-linejoin: round;
		  stroke-miterlimit: 10;
		}
		.st14 {
		  fill-rule: evenodd;
		  clip-rule: evenodd;
		  fill: none;
		  stroke: #89949B;
		  stroke-linecap: round;
		  stroke-linejoin: round;
		  stroke-miterlimit: 10;
		}
		.st15 {
		  fill: none;
		  stroke: #89949B;
		  stroke-linecap: round;
		  stroke-linejoin: round;
		  stroke-miterlimit: 10;
		}
		#cloud_line {
		  -webkit-animation: cloud_line 2s infinite ease-in-out;
		  -moz-animation: cloud_line 2s infinite ease-in-out;
		  -o-animation: cloud_line 2s infinite ease-in-out;
		  animation: cloud_line 2s infinite ease-in-out;
		}
		lesshat-selector {
		  -lh-property: 0; } 
		@-webkit-keyframes cloud_line{ 0% { opacity: 0; } 100% { opacity: 0.3; } }
		@-moz-keyframes cloud_line{ 0% { opacity: 0; } 100% { opacity: 0.3; } }
		@-o-keyframes cloud_line{ 0% { opacity: 0; } 100% { opacity: 0.3; } }
		@keyframes cloud_line{ 0% { opacity: 0;} 100% { opacity: 0.3;}
		}
	 ]]>   
	 </style>
	<text font-family="microsoft yahei" font-size="40" x="0" y="0" fill="#89949B" style="opacity:0.3;">error
      <animateMotion path="M10,90 q200,450 200,50 q760,-50 450,70" begin="0s" dur="7s" rotate="auto" repeatCount="indefinite"/>
    </text>
	<path d="M10,90 q200,450 200,50 q760,-50 450,70" stroke="#8894A0" stroke-width="2" fill="none" opacity="0.2" />
	<polygon points="122 59,72 205,194 114,49 114,171 205" style="fill:#8894A0; stroke:#fff;stroke-width:2;opacity:0.4;">
      <animateTransform attributeName="transform" attributeType="XML" type="rotate" from="0 125 135" to="360 125 135" begin="0s" dur="10s" repeatCount="indefinite"/>
	</polygon>
	<g id="cloud">
	  <path id="cloud_hair" class="st4" style="opacity:0.3;" d="
		M468 108
		c-20,13,-4,37,15,26
		c5,6,14,7,23,1
		c3,2,6,3,11,0
		c3,1,7,2,16,0
		c4,7,9,8,13,1
		c5,1,14,0,16,-3
		c4,10,31,11,41,0
		c7,8,20,7,22,-5
		c29,-1,32,-23,21,-24
		c6,-8,3,-14,-12,-15
		c7,-13,3,-17,-22,-20
		c7,-16,4,-21,-23,-25
		c-10,-3,-19,-23,-31,-10
		h-10
		c-34,0,-24,10,-26,28
		c-10,7,-4,1,-12,8
		c-19,0,-17,10,-19,13
		c-21,0,-24,10,-21,22
		z
		" />
	  <path id="cloud_face" class="st4" style="opacity:0.4;" d="
		M516,133
		c-33,-13,-28,-53,13,-52
		M564,135
		c-29,-24,-22,-40,20,-52
		M602,134
		c9,-7,17,-18,13,-29
		M525,112
		c4,4,15,8,8,19
		c12,4,16,-28,-8,-19
		M540,75
		c5,-3,4,2,10,9
		h8
		c10,-7,17,-12,14,-10
		M544,75
		c-17,7,0,20,6,13
		z
		M573,73
		c4,-2,6,4,2,12
		M558,84
		c-9,9,0,11,7,7
		M542,92
		c-14,0,-14,15,0,15
		" />
	  <path id="cloud_line" class="st5"  style="opacity:0.2;" d="
		M520,121
		l-120,10
		m-12,1
		l-60,5
		m-12,1
		l-30,2.5
		m-12,1
		l-15,1.25
		m-12,1
		l-7.5,0.625
		M523,123
		l-120,20
		m-12,2
		l-60,10
		m-12,2
		l-30,5
		m-12,2
		l-15,2.5
		m-12,2
		l-7.5,1.25
		M526,125
		l-120,40
		m-12,4
		l-60,20
		m-12,4
		l-30,10
		m-12,4
		l-15,5
		m-12,4
		l-7.5,2.5
		M523,127
		l-120,80
		m-12,8
		l-60,40
		m-12,8
		l-30,20
		m-12,8
		l-15,10
		m-12,8
		l-7.5,5
		M520,129
		l-120,120
		m-12,12
		l-60,60
		m-12,12
		l-30,30
		m-12,12
		l-15,15
		m-12,12
		l-7.5,7.5
		M517,132
		l-120,160
		m-12,16
		l-60,80
		m-12,16
		l-30,40
		m-12,16
		l-15,20
		m-12,16
		l-7.5,10" />
	  <path id="cloud_eye" class="st13" style="opacity:0.6;" d="
		M542.5,82
		c1.6,0,2.9,1.3,2.9,2.9
		c0,1.6-1.3,2.9-2.9,2.9
		c-1.6,0-2.9-1.3-2.9-2.9
		C539.5,83.3,540.4,82,542,82z
		z 
		M558.5,85
		c1.6,0,2.9,1.3,2.9,2.9
		c0,1.6-1.3,2.9-2.9,2.9
		c-1.6,0-2.9-1.3-2.9-2.9
		C555.5,86.3,556.4,85,558,85z
		z 
		"/>
	</g>
	<g id="number_5">
		<path id="number_5_outline" class="st1" d="
		M286.1,139
		l-10.5,75.7
		l30,1.2
		c8,-15.6,24.1,-15.6,32.1,0
		c2,4.5,1,9.5,0,14
		c1,40.2,-34,40.2,-35,0
		h-31
		c10,66,90,66,100.8,0
		c0.5,-37,-17,-42.5,-18.9,-46.5
		c-12,-8,-28,-8,-43.2,-4.3
		l2,-24.5
		h57.7
		v-16
		z
		" />
		<path id="number_5_inner_lines" class="st14" d="
		M295,143
		v8 
		h8
		v-8
		z
		M354,147
		h-55
		l-7.5,50
		l20,0
		c8,-5.6,24.1,-5.6,32.1,0
		c15,10,15,55,0,65
		c-5,10,-34,10,-40,0
		l-15,-20
		" />
		<path id="number_5_dots" class="st10" d="
		M287,236
		c1.6,0,2.9,1.3,2.9,2.9
		c0,1.6-1.3,2.9-2.9,2.9
		c-1.6,0-2.9-1.3-2.9-2.9
		C284.1,237.3,285.4,236,287,236
		z 
		M354.4,144.6
		c1.6,0,2.9,1.3,2.9,2.9
		c0,1.6-1.3,2.9-2.9,2.9
		c-1.6,0-2.9-1.3-2.9-2.9
		C351.4,145.9,352.7,144.6,354.4,144.6
		
		z" />
	</g>
	<g id="number_0">
		<path id="number_0_outline" class="st1" d="M502,208.9c0-34-15.9-70.9-54-70.9c-38.3,0-54,36.9-54,70.9s15.7,71.1,54,71.1
				C486.1,280,502,242.9,502,208.9z M481.1,208.9c0,26.8-8.7,53-33.1,53c-24.6,0-33.1-26.2-33.1-53c0-26.8,8.5-52.8,33.1-52.8
				C472.4,156.1,481.1,182.1,481.1,208.9z" />
		<path id="number_0_inner_lines" class="st15" d="M487.2,175.7c-6.7-16.8-19.3-29.4-39.2-29.4c-32,0-45.1,32.5-45.1,62.4
				s13.1,62.6,45.1,62.6c31.8,0,44.1-32.6,44.1-62.6 M487.5,172c3,0,5.5,2.5,5.5,5.5c0,3-2.5,5.5-5.5,5.5c-3,0-5.5-2.5-5.5-5.5
				C482,174.5,484.5,172,487.5,172z M492.5,202c3,0,5.5,2.5,5.5,5.5c0,3-2.5,5.5-5.5,5.5c-3,0-5.5-2.5-5.5-5.5
				C487,204.5,489.5,202,492.5,202z" />
		<path id="number_0_dots" class="st10" d="M492.5,205c1.4,0,2.5,1.1,2.5,2.5c0,1.4-1.1,2.5-2.5,2.5c-1.4,0-2.5-1.1-2.5-2.5
				C490,206.1,491.1,205,492.5,205z M487.5,175c1.4,0,2.5,1.1,2.5,2.5c0,1.4-1.1,2.5-2.5,2.5c-1.4,0-2.5-1.1-2.5-2.5
				C485,176.1,486.1,175,487.5,175z M448.1,143.4c1.6,0,2.9,1.3,2.9,2.9c0,1.6-1.3,2.9-2.9,2.9c-1.6,0-2.9-1.3-2.9-2.9
				C445.1,144.7,446.4,143.4,448.1,143.4z M448.1,268.3c1.6,0,2.9,1.3,2.9,2.9c0,1.6-1.3,2.9-2.9,2.9c-1.6,0-2.9-1.3-2.9-2.9
				C445.1,269.6,446.4,268.3,448.1,268.3z" />
	</g>
	<g id="number_3">
		<path id="number_3_outline" class="st1" d="
		M522 185
		c0 -60 74 -60 74 0
		l-44.5,69.7
		h44.5
		v25.3
		h-74
		v-25.3
		l48,-75.5
		c0,-30,-26,-30,-26,6
		z
		" />
		<path id="number_3_inner_lines" class="st14" d="
		M535.5,172
		c0 -30 49 -30 49 7
		l-44.5,69.7
		v20
		h40		
		" />
		<path id="number_3_dots" class="st10" d="
		M535.5,172
		c1.6,0,2.9,1.3,2.9,2.9
		c0,1.6-1.3,2.9-2.9,2.9
		c-1.6,0-2.9-1.3-2.9-2.9
		C532.5,173.3,533.4,172,535,172z
		z 
		M578,265.6
		c1.6,0,2.9,1.3,2.9,2.9
		c0,1.6-1.3,2.9-2.9,2.9
		c-1.6,0-2.9-1.3-2.9-2.9
		C575,266,577,264.5,578,265
		z" />
	</g>

</svg>